<svg width="222" height="82" viewBox="0 0 222 82" fill="none" xmlns="http://www.w3.org/2000/svg">
<rect x="0.5" y="0.5" width="221" height="65" rx="9.5" stroke="black" stroke-dasharray="2 2"/>
<path d="M47 27.832V29.64H42.344V32.504H45.912V34.28H42.344V39H40.104V27.832H47ZM57.0364 36.872H52.5884L51.8524 39H49.5004L53.5164 27.816H56.1244L60.1404 39H57.7724L57.0364 36.872ZM56.4284 35.08L54.8124 30.408L53.1964 35.08H56.4284ZM75.4175 27.832V39H73.1775V31.736L70.1855 39H68.4895L65.4815 31.736V39H63.2415V27.832H65.7855L69.3375 36.136L72.8895 27.832H75.4175ZM84.4161 39.112C83.3708 39.112 82.4108 38.8667 81.5361 38.376C80.6615 37.8853 79.9681 37.208 79.4561 36.344C78.9441 35.4693 78.6881 34.4827 78.6881 33.384C78.6881 32.296 78.9441 31.32 79.4561 30.456C79.9681 29.5813 80.6615 28.8987 81.5361 28.408C82.4108 27.9173 83.3708 27.672 84.4161 27.672C85.4721 27.672 86.4321 27.9173 87.2961 28.408C88.1708 28.8987 88.8588 29.5813 89.3601 30.456C89.8721 31.32 90.1281 32.296 90.1281 33.384C90.1281 34.4827 89.8721 35.4693 89.3601 36.344C88.8588 37.208 88.1708 37.8853 87.2961 38.376C86.4215 38.8667 85.4615 39.112 84.4161 39.112ZM84.4161 37.112C85.0881 37.112 85.6801 36.9627 86.1921 36.664C86.7041 36.3547 87.1041 35.9173 87.3921 35.352C87.6801 34.7867 87.8241 34.1307 87.8241 33.384C87.8241 32.6373 87.6801 31.9867 87.3921 31.432C87.1041 30.8667 86.7041 30.4347 86.1921 30.136C85.6801 29.8373 85.0881 29.688 84.4161 29.688C83.7441 29.688 83.1468 29.8373 82.6241 30.136C82.1121 30.4347 81.7121 30.8667 81.4241 31.432C81.1361 31.9867 80.9921 32.6373 80.9921 33.384C80.9921 34.1307 81.1361 34.7867 81.4241 35.352C81.7121 35.9173 82.1121 36.3547 82.6241 36.664C83.1468 36.9627 83.7441 37.112 84.4161 37.112ZM95.6026 27.832V34.744C95.6026 35.5013 95.8 36.0827 96.1946 36.488C96.5893 36.8827 97.144 37.08 97.8586 37.08C98.584 37.08 99.144 36.8827 99.5386 36.488C99.9333 36.0827 100.131 35.5013 100.131 34.744V27.832H102.387V34.728C102.387 35.6773 102.179 36.4827 101.763 37.144C101.357 37.7947 100.808 38.2853 100.115 38.616C99.432 38.9467 98.6693 39.112 97.8266 39.112C96.9946 39.112 96.2373 38.9467 95.5546 38.616C94.8826 38.2853 94.3493 37.7947 93.9546 37.144C93.56 36.4827 93.3626 35.6773 93.3626 34.728V27.832H95.6026ZM110.007 39.112C109.228 39.112 108.524 38.9787 107.895 38.712C107.276 38.4453 106.786 38.0613 106.423 37.56C106.06 37.0587 105.874 36.4667 105.863 35.784H108.263C108.295 36.2427 108.455 36.6053 108.743 36.872C109.042 37.1387 109.447 37.272 109.959 37.272C110.482 37.272 110.892 37.1493 111.191 36.904C111.49 36.648 111.639 36.3173 111.639 35.912C111.639 35.5813 111.538 35.3093 111.335 35.096C111.132 34.8827 110.876 34.7173 110.567 34.6C110.268 34.472 109.852 34.3333 109.319 34.184C108.594 33.9707 108.002 33.7627 107.543 33.56C107.095 33.3467 106.706 33.032 106.375 32.616C106.055 32.1893 105.895 31.624 105.895 30.92C105.895 30.2587 106.06 29.6827 106.391 29.192C106.722 28.7013 107.186 28.328 107.783 28.072C108.38 27.8053 109.063 27.672 109.831 27.672C110.983 27.672 111.916 27.9547 112.631 28.52C113.356 29.0747 113.756 29.8533 113.831 30.856H111.367C111.346 30.472 111.18 30.1573 110.871 29.912C110.572 29.656 110.172 29.528 109.671 29.528C109.234 29.528 108.882 29.64 108.615 29.864C108.359 30.088 108.231 30.4133 108.231 30.84C108.231 31.1387 108.327 31.3893 108.519 31.592C108.722 31.784 108.967 31.944 109.255 32.072C109.554 32.1893 109.97 32.328 110.503 32.488C111.228 32.7013 111.82 32.9147 112.279 33.128C112.738 33.3413 113.132 33.6613 113.463 34.088C113.794 34.5147 113.959 35.0747 113.959 35.768C113.959 36.3653 113.804 36.92 113.495 37.432C113.186 37.944 112.732 38.3547 112.135 38.664C111.538 38.9627 110.828 39.112 110.007 39.112ZM131.233 40.968L129.537 38.936C129.068 39.0533 128.588 39.112 128.097 39.112C127.052 39.112 126.092 38.8667 125.217 38.376C124.343 37.8853 123.649 37.208 123.137 36.344C122.625 35.4693 122.369 34.4827 122.369 33.384C122.369 32.296 122.625 31.32 123.137 30.456C123.649 29.5813 124.343 28.8987 125.217 28.408C126.092 27.9173 127.052 27.672 128.097 27.672C129.153 27.672 130.113 27.9173 130.977 28.408C131.852 28.8987 132.54 29.5813 133.041 30.456C133.553 31.32 133.809 32.296 133.809 33.384C133.809 34.376 133.596 35.2827 133.169 36.104C132.753 36.9147 132.183 37.576 131.457 38.088L134.017 40.968H131.233ZM124.673 33.384C124.673 34.1307 124.817 34.7867 125.105 35.352C125.393 35.9173 125.793 36.3547 126.305 36.664C126.828 36.9627 127.425 37.112 128.097 37.112C128.769 37.112 129.361 36.9627 129.873 36.664C130.385 36.3547 130.785 35.9173 131.073 35.352C131.361 34.7867 131.505 34.1307 131.505 33.384C131.505 32.6373 131.361 31.9867 131.073 31.432C130.785 30.8667 130.385 30.4347 129.873 30.136C129.361 29.8373 128.769 29.688 128.097 29.688C127.425 29.688 126.828 29.8373 126.305 30.136C125.793 30.4347 125.393 30.8667 125.105 31.432C124.817 31.9867 124.673 32.6373 124.673 33.384ZM139.315 27.832V34.744C139.315 35.5013 139.512 36.0827 139.907 36.488C140.302 36.8827 140.856 37.08 141.571 37.08C142.296 37.08 142.856 36.8827 143.251 36.488C143.646 36.0827 143.843 35.5013 143.843 34.744V27.832H146.099V34.728C146.099 35.6773 145.891 36.4827 145.475 37.144C145.07 37.7947 144.52 38.2853 143.827 38.616C143.144 38.9467 142.382 39.112 141.539 39.112C140.707 39.112 139.95 38.9467 139.267 38.616C138.595 38.2853 138.062 37.7947 137.667 37.144C137.272 36.4827 137.075 35.6773 137.075 34.728V27.832H139.315ZM155.047 39.112C154.002 39.112 153.042 38.8667 152.167 38.376C151.293 37.8853 150.599 37.208 150.087 36.344C149.575 35.4693 149.319 34.4827 149.319 33.384C149.319 32.296 149.575 31.32 150.087 30.456C150.599 29.5813 151.293 28.8987 152.167 28.408C153.042 27.9173 154.002 27.672 155.047 27.672C156.103 27.672 157.063 27.9173 157.927 28.408C158.802 28.8987 159.49 29.5813 159.991 30.456C160.503 31.32 160.759 32.296 160.759 33.384C160.759 34.4827 160.503 35.4693 159.991 36.344C159.49 37.208 158.802 37.8853 157.927 38.376C157.053 38.8667 156.093 39.112 155.047 39.112ZM155.047 37.112C155.719 37.112 156.311 36.9627 156.823 36.664C157.335 36.3547 157.735 35.9173 158.023 35.352C158.311 34.7867 158.455 34.1307 158.455 33.384C158.455 32.6373 158.311 31.9867 158.023 31.432C157.735 30.8667 157.335 30.4347 156.823 30.136C156.311 29.8373 155.719 29.688 155.047 29.688C154.375 29.688 153.778 29.8373 153.255 30.136C152.743 30.4347 152.343 30.8667 152.055 31.432C151.767 31.9867 151.623 32.6373 151.623 33.384C151.623 34.1307 151.767 34.7867 152.055 35.352C152.343 35.9173 152.743 36.3547 153.255 36.664C153.778 36.9627 154.375 37.112 155.047 37.112ZM171.626 27.832V29.64H168.65V39H166.41V29.64H163.434V27.832H171.626ZM177.1 29.64V32.44H180.86V34.216H177.1V37.176H181.34V39H174.86V27.816H181.34V29.64H177.1Z" fill="#23262F"/>
<path d="M109.324 80.27L97 66H125L112.334 80.2894C111.532 81.1949 110.115 81.1858 109.324 80.27Z" stroke="black" stroke-linecap="round" stroke-dasharray="2 2"/>
<path d="M99.6 67L96 64H126L123 67H99.6Z" fill="#FCFCFC"/>
</svg>
