<svg width="18" height="18" viewBox="0 0 18 18" fill="none" xmlns="http://www.w3.org/2000/svg">
<path fill-rule="evenodd" clip-rule="evenodd" d="M1.86133 8.7861C1.86133 4.8439 5.05752 1.64771 8.99972 1.64771C10.8813 1.64771 12.5875 2.38165 13.8607 3.56829C13.9697 3.66986 14.0328 3.81136 14.0354 3.96033C14.038 4.10929 13.98 4.25292 13.8746 4.35827L12.0109 6.22205C11.8052 6.42769 11.4749 6.43733 11.2576 6.24404C10.6549 5.70791 9.86635 5.38163 8.99972 5.38163C7.11962 5.38163 5.59526 6.906 5.59526 8.7861C5.59526 10.6662 7.11962 12.1906 8.99972 12.1906C10.1886 12.1906 11.2343 11.5794 11.8425 10.6531H8.99972C8.69646 10.6531 8.45061 10.4072 8.45061 10.104V7.46824C8.45061 7.16498 8.69646 6.91913 8.99972 6.91913H15.4608C15.723 6.91913 15.9485 7.1044 15.9995 7.36153C16.0892 7.81436 16.1381 8.30872 16.1381 8.7861C16.1381 12.7283 12.9419 15.9245 8.99972 15.9245C5.05752 15.9245 1.86133 12.7283 1.86133 8.7861ZM8.99972 2.74592C5.66405 2.74592 2.95954 5.45043 2.95954 8.7861C2.95954 12.1218 5.66405 14.8263 8.99972 14.8263C12.3354 14.8263 15.0399 12.1218 15.0399 8.7861C15.0399 8.53166 15.0234 8.27071 14.9925 8.01735H9.54883V9.55485H12.7237C12.902 9.55485 13.0692 9.64142 13.1721 9.78703C13.275 9.93264 13.3008 10.1192 13.2413 10.2872C12.6232 12.0328 10.9615 13.2888 8.99972 13.2888C6.5131 13.2888 4.49704 11.2727 4.49704 8.7861C4.49704 6.29947 6.5131 4.28342 8.99972 4.28342C9.96122 4.28342 10.85 4.5874 11.5795 5.10027L12.6772 4.0026C11.6578 3.21568 10.3848 2.74592 8.99972 2.74592Z" fill="#232526"/>
</svg>
