<svg width="35" height="35" viewBox="0 0 35 35" fill="none" xmlns="http://www.w3.org/2000/svg">
<path fill-rule="evenodd" clip-rule="evenodd" d="M17.5 29.1666C17.5 29.1666 17.5 8.74992 17.5 8.74992C17.5 8.74992 14.5833 5.83325 11.6666 5.83325C8.74997 5.83325 4.37497 8.74992 4.37497 8.74992C4.37497 8.74992 4.37497 29.1666 4.37497 29.1666C4.37497 29.1666 8.74996 26.2499 11.6666 26.2499C14.5833 26.2499 17.5 29.1666 17.5 29.1666Z" stroke="#C0304F" stroke-width="2" stroke-linecap="round" stroke-linejoin="round"/>
<path fill-rule="evenodd" clip-rule="evenodd" d="M17.5 29.1666C17.5 29.1666 17.5 8.74992 17.5 8.74992C17.5 8.74992 20.4167 5.83325 23.3334 5.83325C26.25 5.83325 30.625 8.74992 30.625 8.74992C30.625 8.74992 30.625 29.1666 30.625 29.1666C30.625 29.1666 26.25 26.2499 23.3334 26.2499C20.4167 26.2499 17.5 29.1666 17.5 29.1666Z" stroke="#C0304F" stroke-width="2" stroke-linecap="round" stroke-linejoin="round"/>
</svg>
