<svg width="43" height="59" viewBox="0 0 43 59" fill="none" xmlns="http://www.w3.org/2000/svg">
<path d="M28.2878 51.373C28.2878 52.3384 28.7384 53.1108 29.6395 53.69C30.5405 54.205 31.8278 54.5589 33.5013 54.752C35.2391 54.9451 37.2987 55.0417 39.6802 55.0417H42.7696V59H1.73782V55.0417H5.79273C8.04546 55.0417 9.97636 54.9451 11.5855 54.752C13.1945 54.5589 14.4175 54.205 15.2542 53.69C16.0909 53.1108 16.5093 52.3384 16.5093 51.373V6.47931L17.9575 5.51386C17.5069 6.80113 16.7024 8.02404 15.5438 9.18258C14.3853 10.3411 13.0015 11.3388 11.3924 12.1755C9.78327 13.0122 8.01327 13.688 6.08237 14.2029C4.15146 14.6535 2.124 14.8788 0 14.8788V8.02404C2.57455 8.02404 4.89164 7.86313 6.95127 7.54131C9.07527 7.21949 10.974 6.73676 12.6475 6.09313C14.3209 5.44949 15.8013 4.64495 17.0885 3.67949C18.3758 2.71404 19.47 1.5555 20.3711 0.203857H28.2878V51.373Z" fill="#FFE6E0"/>
</svg>
