<svg width="35" height="35" viewBox="0 0 35 35" fill="none" xmlns="http://www.w3.org/2000/svg">
<path d="M18.5979 8.63935C17.8005 9.16712 17.0322 9.77913 16.3225 10.4888C15.277 11.5343 15.3051 11.5911 14.3701 12.6612M18.5979 8.63935C23.5932 5.33283 29.7281 5.33283 29.7281 5.33283C29.7281 5.33283 29.7281 11.4677 26.4216 16.4631M18.5979 8.63935L26.4216 16.4631M26.4216 16.4631C25.8938 17.2604 25.2818 18.0287 24.5721 18.7384C23.5266 19.7839 23.4698 19.7559 22.3997 20.6908M8.91836 19.5838C8.37521 20.3474 8.07295 20.8008 8.07295 20.8008L14.2601 26.988C14.2601 26.988 14.7135 26.6857 15.4771 26.1426M8.91836 19.5838L3.94816 14.6136L12.1977 10.4888L14.3701 12.6612M8.91836 19.5838C9.97481 18.0986 11.9426 15.4399 14.3701 12.6612M15.4771 26.1426L20.4473 31.1128L24.5721 22.8632L22.3997 20.6908M15.4771 26.1426C16.9623 25.0861 19.6211 23.1183 22.3997 20.6908" stroke="#C0304F" stroke-width="2"/>
<path d="M7.29199 27.7084C7.80282 25.6412 8.7502 24.7919 9.47946 25.521C10.2087 26.2501 9.35915 27.1976 7.29199 27.7084Z" stroke="#C0304F"/>
</svg>
