<svg width="49" height="69" viewBox="0 0 49 69" fill="none" xmlns="http://www.w3.org/2000/svg">
<path d="M22.8813 31.4738C27.6442 31.4738 31.6669 31.9244 34.9495 32.8255C38.232 33.6622 40.8709 34.8851 42.8662 36.4942C44.9258 38.0389 46.4062 39.8733 47.3073 41.9973C48.2084 44.0569 48.6589 46.3418 48.6589 48.852C48.6589 52.7782 47.5969 56.2216 45.4729 59.1824C43.4133 62.0787 40.5491 64.3315 36.8804 65.9406C33.276 67.5496 29.1245 68.3542 24.426 68.3542C20.0493 68.3542 16.2518 67.6784 13.0336 66.3267C9.81546 64.9751 7.11218 63.1085 4.92382 60.7271C2.79982 58.41 1.15855 55.7711 0 52.8104L4.15145 49.914C4.79509 51.6518 5.63182 53.3575 6.66164 55.0309C7.75582 56.64 9.07527 58.1204 10.62 59.472C12.2291 60.7593 14.0635 61.7569 16.1231 62.4649C18.2471 63.2373 20.6285 63.6235 23.2675 63.6235C26.2282 63.6235 28.7062 63.0442 30.7015 61.8856C32.7611 60.7271 34.338 59.0536 35.4322 56.8653C36.5264 54.6125 37.0735 51.8771 37.0735 48.6589C37.0735 45.8269 36.5586 43.3489 35.5287 41.2249C34.5633 39.1009 32.922 37.4596 30.6049 36.3011C28.2878 35.0782 25.1984 34.4667 21.3365 34.4667H14.9645V30.1222H20.3711C23.5249 30.1222 26.1638 29.6395 28.2878 28.674C30.4762 27.6442 32.1496 26.1638 33.3082 24.2329C34.4667 22.2376 35.046 19.7596 35.046 16.7989C35.046 14.0313 34.5633 11.7464 33.5978 9.94418C32.6967 8.142 31.3773 6.79037 29.6395 5.88927C27.966 4.98818 25.9707 4.53764 23.6536 4.53764C20.3711 4.53764 17.6678 5.21346 15.5438 6.56509C13.4198 7.85237 11.7785 9.49364 10.62 11.4889C10.6844 10.7809 10.8131 10.1373 11.0062 9.558C11.1993 8.91436 11.4245 8.33509 11.682 7.82019C12.0038 7.24091 12.3578 6.79037 12.744 6.46855C13.1945 6.08237 13.7095 5.82491 14.2887 5.69619V17.2816H4.248V8.10982C5.34218 6.88691 6.85473 5.664 8.78564 4.44109C10.7809 3.15382 13.1302 2.09182 15.8335 1.25509C18.5367 0.418365 21.5296 0 24.8122 0C28.8671 0 32.5036 0.643637 35.7218 1.93091C39.0044 3.15382 41.5789 4.92382 43.4455 7.24091C45.312 9.558 46.2453 12.39 46.2453 15.7369C46.2453 19.1482 45.1189 22.1089 42.8662 24.6191C40.6778 27.1293 37.6849 29.0924 33.8875 30.5084C30.1544 31.86 25.9064 32.5358 21.1435 32.5358L26.2604 30.8946V33.0186L22.8813 31.4738Z" fill="#FFE6E0"/>
</svg>
