<svg width="46" height="60" viewBox="0 0 46 60" fill="none" xmlns="http://www.w3.org/2000/svg">
<path d="M28.6892 51.3592C31.3474 51.3592 33.487 51.2298 35.1078 50.9709C36.7935 50.712 38.0254 50.2589 38.8034 49.6116C39.6462 48.8997 40.1649 47.8641 40.3594 46.5049L41.4292 39.4175H46V60H0V52.0388C3.63073 49.9029 7.06695 47.8317 10.3087 45.8252C13.5504 43.7541 16.5004 41.6505 19.1586 39.5146C21.8168 37.3139 24.1184 35.0485 26.0634 32.7184C28.0085 30.3884 29.4997 27.9288 30.537 25.3398C31.5744 22.6861 32.093 19.8058 32.093 16.699C32.093 13.7864 31.6716 11.4563 30.8288 9.70874C29.9859 7.89644 28.7541 6.56958 27.1332 5.72816C25.5772 4.88673 23.697 4.46602 21.4926 4.46602C19.1586 4.46602 17.0839 4.85437 15.2685 5.63107C13.518 6.34304 11.9944 7.28155 10.6977 8.4466C9.46582 9.61165 8.39605 10.8738 7.48837 12.233C7.55321 11.7152 7.68288 11.1327 7.87738 10.4854C8.07188 9.83819 8.33122 9.2233 8.65539 8.64078C9.0444 7.99353 9.46582 7.44337 9.91966 6.9903C10.4383 6.53722 11.0218 6.24596 11.6702 6.11651V17.8641H1.55603V8.34952C2.72304 7.05502 4.31149 5.76052 6.32135 4.46602C8.39606 3.17152 10.7949 2.10356 13.518 1.26214C16.3059 0.420713 19.2882 0 22.4651 0C26.8739 0 30.6667 0.64725 33.8436 1.94175C37.0853 3.23625 39.549 5.14563 41.2347 7.6699C42.9852 10.1294 43.8605 13.2039 43.8605 16.8932C43.8605 19.9353 43.0825 22.8803 41.5264 25.7282C39.9704 28.5761 37.8309 31.3269 35.1078 33.9806C32.4496 36.5696 29.4024 39.0615 25.9662 41.4563C22.5948 43.8511 19.0613 46.1165 15.3658 48.2524C11.6702 50.3236 8.00705 52.2977 4.37632 54.1748C4.18182 54.0453 4.18182 53.8188 4.37632 53.4951C4.57082 53.1068 4.83016 52.7184 5.15433 52.3301C5.47851 51.877 5.70543 51.5534 5.83509 51.3592H28.6892Z" fill="#FFE6E0"/>
</svg>
