<svg width="18" height="18" viewBox="0 0 18 18" fill="none" xmlns="http://www.w3.org/2000/svg">
<path d="M11.7146 5.12502C11.7146 4.72067 12.0424 4.39288 12.4467 4.39288C12.8511 4.39288 13.1789 4.72067 13.1789 5.12502C13.1789 5.52938 12.8511 5.85717 12.4467 5.85717C12.0424 5.85717 11.7146 5.52938 11.7146 5.12502Z" fill="#232526"/>
<path fill-rule="evenodd" clip-rule="evenodd" d="M8.786 5.30806C6.86533 5.30806 5.30832 6.86507 5.30832 8.78574C5.30832 10.7064 6.86533 12.2634 8.786 12.2634C10.7067 12.2634 12.2637 10.7064 12.2637 8.78574C12.2637 6.86507 10.7067 5.30806 8.786 5.30806ZM6.40653 8.78574C6.40653 7.4716 7.47185 6.40627 8.786 6.40627C10.1001 6.40627 11.1655 7.4716 11.1655 8.78574C11.1655 10.0999 10.1001 11.1652 8.786 11.1652C7.47185 11.1652 6.40653 10.0999 6.40653 8.78574Z" fill="#232526"/>
<path fill-rule="evenodd" clip-rule="evenodd" d="M12.6358 2.0742C10.0978 1.79053 7.47425 1.79053 4.93622 2.0742C3.46311 2.23884 2.27386 3.39929 2.10067 4.88007C1.79717 7.47501 1.79717 10.0965 2.10067 12.6914C2.27386 14.1722 3.46311 15.3326 4.93622 15.4973C7.47425 15.7809 10.0978 15.7809 12.6358 15.4973C14.1089 15.3326 15.2981 14.1722 15.4713 12.6914C15.7748 10.0965 15.7748 7.47501 15.4713 4.88007C15.2981 3.39929 14.1089 2.23884 12.6358 2.0742ZM5.0582 3.16562C7.51516 2.89101 10.0568 2.89101 12.5138 3.16562C13.4876 3.27446 14.2677 4.04292 14.3806 5.00765C14.6741 7.51782 14.6741 10.0537 14.3806 12.5638C14.2677 13.5286 13.4876 14.297 12.5138 14.4059C10.0568 14.6805 7.51516 14.6805 5.0582 14.4059C4.08437 14.297 3.30429 13.5286 3.19145 12.5638C2.89786 10.0537 2.89786 7.51782 3.19145 5.00765C3.30429 4.04292 4.08437 3.27446 5.0582 3.16562Z" fill="#232526"/>
</svg>
