<svg width="24" height="25" viewBox="0 0 24 25" fill="none" xmlns="http://www.w3.org/2000/svg">
<path d="M9 13.7695L15 16.7695M15 7.76953L9 10.7695M18 21.2695C16.3431 21.2695 15 19.9264 15 18.2695C15 16.6127 16.3431 15.2695 18 15.2695C19.6569 15.2695 21 16.6127 21 18.2695C21 19.9264 19.6569 21.2695 18 21.2695ZM6 15.2695C4.34315 15.2695 3 13.9264 3 12.2695C3 10.6127 4.34315 9.26953 6 9.26953C7.65685 9.26953 9 10.6127 9 12.2695C9 13.9264 7.65685 15.2695 6 15.2695ZM18 9.26953C16.3431 9.26953 15 7.92639 15 6.26953C15 4.61268 16.3431 3.26953 18 3.26953C19.6569 3.26953 21 4.61268 21 6.26953C21 7.92639 19.6569 9.26953 18 9.26953Z" stroke="#FCFCFC" stroke-width="2" stroke-linecap="round" stroke-linejoin="round"/>
</svg>
