<svg width="18" height="18" viewBox="0 0 18 18" fill="none" xmlns="http://www.w3.org/2000/svg">
<path fill-rule="evenodd" clip-rule="evenodd" d="M8.03143 6.11884C7.8618 6.01706 7.65053 6.0144 7.47838 6.11187C7.30623 6.20934 7.19981 6.39187 7.19981 6.5897V10.9826C7.19981 11.1804 7.30623 11.3629 7.47838 11.4604C7.65053 11.5579 7.8618 11.5552 8.03143 11.4534L11.6921 9.25698C11.8575 9.15775 11.9587 8.97901 11.9587 8.78613C11.9587 8.59325 11.8575 8.41451 11.6921 8.31527L8.03143 6.11884ZM10.3424 8.78613L8.29803 10.0127V7.55953L10.3424 8.78613Z" fill="#232526"/>
<path fill-rule="evenodd" clip-rule="evenodd" d="M12.8964 3.3985C10.4447 3.20669 7.98177 3.20669 5.53008 3.3985L3.88956 3.52684C2.89197 3.60489 2.07586 4.35256 1.91096 5.33952C1.52968 7.62144 1.52968 9.95082 1.91096 12.2327C2.07586 13.2197 2.89197 13.9674 3.88956 14.0454L5.53008 14.1738C7.98176 14.3656 10.4447 14.3656 12.8964 14.1738L14.5369 14.0454C15.5345 13.9674 16.3506 13.2197 16.5155 12.2327C16.8968 9.95082 16.8968 7.62144 16.5155 5.33952C16.3506 4.35256 15.5345 3.60489 14.5369 3.52684L12.8964 3.3985ZM5.61573 4.49336C8.01041 4.30602 10.416 4.30602 12.8107 4.49336L14.4512 4.62171C14.9459 4.66041 15.3505 5.03113 15.4323 5.5205C15.7936 7.6826 15.7936 9.88966 15.4323 12.0518C15.3505 12.5411 14.9459 12.9118 14.4512 12.9505L12.8107 13.0789C10.4161 13.2662 8.0104 13.2662 5.61573 13.0789L3.97522 12.9505C3.48058 12.9118 3.07592 12.5411 2.99415 12.0518C2.6329 9.88966 2.6329 7.6826 2.99415 5.5205C3.07592 5.03113 3.48058 4.66041 3.97522 4.62171L5.61573 4.49336Z" fill="#232526"/>
</svg>
