<svg width="51" height="56" viewBox="0 0 51 56" fill="none" xmlns="http://www.w3.org/2000/svg">
<path d="M37.8359 27.9849C39.4799 28.0297 41.8418 29.1946 42.8934 32.4732C42.9705 32.7136 43.1902 32.8776 43.4425 32.8879C44.3714 32.9256 46.4093 33.2214 46.5613 35.3104" stroke="#C0304F" stroke-width="0.466595" stroke-linecap="round"/>
<path d="M3.32031 29.8051C3.56916 28.7941 4.50546 27.0148 6.25986 27.9853C6.25986 28.1253 5.83992 22.8995 10.6925 23.8793" stroke="#C0304F" stroke-width="0.466595" stroke-linecap="round"/>
<path d="M4.52344 38.437C4.91227 37.3327 6.0352 35.4135 7.41632 36.5706C7.41632 36.6173 6.90307 31.7647 11.989 32.4179" stroke="#C0304F" stroke-width="0.466595" stroke-linecap="round"/>
<path d="M35.7891 17.3467C37.811 17.6111 41.7801 19.1291 41.4815 23.0858C41.3882 23.1325 44.841 22.0593 45.8208 25.2321" stroke="#C0304F" stroke-width="0.466595" stroke-linecap="round"/>
<path d="M24.1696 5.77369C17.6645 6.17781 10.9059 9.10077 6.5204 13.9223C2.13496 18.7438 -0.199174 25.0844 0.0133363 31.5986C0.225847 38.1127 2.96827 44.2877 7.65865 48.8131C12.349 53.3386 18.6182 55.8583 25.1358 55.8376C31.6533 55.8169 37.9064 53.2574 42.5679 48.7022C47.2294 44.1471 49.9325 37.9548 50.1036 31.4394C50.2747 24.924 47.9004 18.5984 43.4843 13.8048C39.0683 9.01128 32.4968 6.13646 25.9893 5.77368L26.3629 7.34014C32.4605 7.68006 38.1857 10.3826 42.3236 14.8742C46.4614 19.3658 48.6862 25.293 48.5259 31.398C48.3656 37.5029 45.8327 43.3052 41.4648 47.5734C37.0969 51.8416 31.2378 54.2399 25.1307 54.2593C19.0237 54.2787 13.1494 51.9177 8.75451 47.6773C4.35958 43.437 1.7899 37.6509 1.59077 31.5471C1.39165 25.4433 3.57875 19.5021 7.68796 14.9843C11.7972 10.4664 17.5051 7.72759 23.6004 7.34892L24.1696 5.77369Z" fill="#C0304F"/>
<path d="M12.5009 39.9768L5.92188 44.4561L6.10851 45.296L7.275 46.6491L12.0343 50.7085L17.8667 53.8813L22.7193 55.0945L28.5517 54.8612L33.451 53.788L38.7701 51.0351L43.9027 45.9492L44.276 44.3161L37.9769 39.7902L36.8571 40.5367L32.1445 36.8506V35.3575H31.3046V32.0447L31.7712 31.1115L31.2113 31.2048L30.1848 23.2261L29.3449 30.9249L28.5517 30.6449V25.7457C27.8798 25.8203 25.9388 24.3148 25.0523 23.5527C24.3057 24.5979 22.4704 25.4502 21.6461 25.7457V30.6449L20.9462 31.0182L19.9664 23.2261L19.0332 31.1115H18.4266L18.8932 32.0447V35.3575H18.0533V36.9906L13.434 40.5834L12.5009 39.9768Z" fill="#C0304F"/>
<rect x="24.8203" y="0.269531" width="0.559913" height="4.85258" fill="#C0304F"/>
<rect x="23.3359" y="1.76221" width="3.54612" height="0.653232" fill="#C0304F"/>
<path d="M20.8594 36.7103V54.1143H21.7459V34.144H21.326V36.7103H20.8594Z" fill="#232526" stroke="#232526" stroke-width="0.279957"/>
<path d="M29.4375 36.7103V54.1143H28.551V34.144H28.9709V36.7103H29.4375Z" fill="#232526" stroke="#232526" stroke-width="0.279957"/>
<path d="M24.7266 38.4834V50.1016H25.3798V38.4834C25.3798 38.303 25.2336 38.1567 25.0532 38.1567C24.8728 38.1567 24.7266 38.303 24.7266 38.4834Z" fill="#232526" stroke="#232526" stroke-width="0.0933189"/>
<path d="M18.7116 52.7145C18.7116 52.7918 18.7743 52.8545 18.8516 52.8545C18.9289 52.8545 18.9915 52.7918 18.9915 52.7145H18.7116ZM18.7116 36.897V52.7145H18.9915V36.897H18.7116Z" fill="#232526"/>
<path d="M31.3053 53.088C31.3053 53.1653 31.368 53.2279 31.4453 53.2279C31.5226 53.2279 31.5853 53.1653 31.5853 53.088L31.3053 53.088ZM31.3053 37.0371L31.3053 53.088L31.5853 53.088L31.5853 37.0371L31.3053 37.0371Z" fill="#232526"/>
<path d="M6.90625 45.1557L12.3187 41.1897L13.3919 41.9829L18.0579 38.0635" stroke="#232526" stroke-width="0.373276"/>
<path d="M43.2969 45.0629L37.8844 41.0969L36.8112 41.8901L32.1453 37.9707" stroke="#232526" stroke-width="0.373276"/>
<path d="M22.625 27.1918V30.2713H23.0916V27.1915C23.0916 27.0627 22.9871 26.9585 22.8583 26.9585C22.7295 26.9585 22.625 27.0629 22.625 27.1918Z" fill="#232526" stroke="#232526" stroke-width="0.0933189"/>
<path d="M27.1562 27.1918V30.2713H27.6228V27.1915C27.6228 27.0627 27.5184 26.9585 27.3895 26.9585C27.2607 26.9585 27.1562 27.0629 27.1562 27.1918Z" fill="#232526" stroke="#232526" stroke-width="0.0933189"/>
<path d="M21.3281 25.1854V25.5587C22.5599 25.5587 24.361 23.9412 25.1075 23.1324C26.0034 24.4015 28.0315 25.2787 28.9336 25.5587V25.1854L28.0004 24.9988L25.0609 5.49512L22.308 24.9988L21.3281 25.1854Z" fill="#C0304F"/>
</svg>
